<?xml version="1.0" standalone="no"?>
<!DOCTYPE svg PUBLIC "-//W3C//DTD SVG 20010904//EN"
 "http://www.w3.org/TR/2001/REC-SVG-20010904/DTD/svg10.dtd">
<svg version="1.0" xmlns="http://www.w3.org/2000/svg"
 width="300.000000pt" height="300.000000pt" viewBox="0 0 300.000000 300.000000"
 preserveAspectRatio="xMidYMid meet">
<metadata>
Created by potrace 1.11, written by Peter Selinger 2001-2013
</metadata>
<g transform="translate(0.000000,300.000000) scale(0.100000,-0.100000)"
fill="#000000" stroke="none">
<path d="M0 1500 l0 -1500 1500 0 1500 0 0 1500 0 1500 -1500 0 -1500 0 0
-1500z m1425 791 c87 -38 165 -133 196 -239 l12 -42 25 42 c140 237 343 324
537 229 75 -37 117 -82 157 -168 53 -112 57 -169 58 -719 l0 -501 81 -6 c69
-4 86 -9 107 -30 29 -30 40 -98 22 -151 -20 -61 -44 -68 -250 -64 -171 3 -181
4 -202 26 l-23 23 -5 612 c-5 603 -5 613 -27 659 -13 29 -35 55 -55 68 -41 25
-116 27 -164 4 -78 -37 -153 -155 -197 -307 -18 -65 -21 -106 -24 -453 l-4
-381 76 -6 c61 -4 82 -10 101 -28 29 -27 41 -97 25 -150 -19 -64 -43 -71 -248
-67 l-175 3 -24 28 -24 28 0 557 c0 306 -4 585 -9 619 -18 122 -63 173 -154
173 -26 0 -63 -6 -81 -14 -48 -20 -110 -89 -145 -161 -71 -143 -91 -300 -91
-716 l0 -266 76 -6 c60 -4 81 -10 100 -28 29 -27 40 -91 24 -147 -19 -72 -26
-73 -371 -70 l-301 3 -25 29 c-23 27 -25 36 -21 98 2 44 9 73 19 84 22 21 80
33 162 34 l67 0 0 575 0 575 -94 0 c-52 0 -102 3 -111 6 -26 10 -45 60 -45
119 0 49 4 60 29 86 l29 29 176 0 c96 0 186 -4 201 -10 40 -15 55 -64 55 -177
l0 -98 26 50 c95 181 239 280 394 271 39 -2 86 -12 115 -25z"/>
</g>
</svg>
